<svg xmlns="http://www.w3.org/2000/svg" viewBox="0 0 160.7 30.13"><defs><style>.cls-1{fill:#fff;}</style></defs><g id="Layer_2" data-name="Layer 2"><g id="Layer_1-2" data-name="Layer 1"><path class="cls-1" d="M40.91,15.89a4.33,4.33,0,0,1-1.66-1.78,5.83,5.83,0,0,1-.59-2.67V7.71a5.79,5.79,0,0,1,.59-2.66,4.33,4.33,0,0,1,1.66-1.78,4.81,4.81,0,0,1,2.48-.63,4.57,4.57,0,0,1,2.15.5,4.48,4.48,0,0,1,1.65,1.41,5.35,5.35,0,0,1,.89,2.13h-2a2.83,2.83,0,0,0-.59-1.14,2.91,2.91,0,0,0-1-.77,2.63,2.63,0,0,0-1.16-.27,2.59,2.59,0,0,0-1.45.4A2.65,2.65,0,0,0,41,6a3.85,3.85,0,0,0-.34,1.68v3.73A3.92,3.92,0,0,0,41,13.13a2.62,2.62,0,0,0,1,1.12,2.59,2.59,0,0,0,1.45.4,2.73,2.73,0,0,0,2.14-1,2.8,2.8,0,0,0,.59-1.18h2a5.43,5.43,0,0,1-.9,2.13A4.53,4.53,0,0,1,45.54,16a4.6,4.6,0,0,1-2.15.5A4.91,4.91,0,0,1,40.91,15.89Z" transform="translate(0 -2.64)"/><path class="cls-1" d="M50.6,2.77h1.91v13.6H50.6Zm.84,6h4.63a1.7,1.7,0,0,0,1.62-1,2.59,2.59,0,0,0,.23-1.11,2.57,2.57,0,0,0-.23-1.1,1.7,1.7,0,0,0-1.62-1H51.44V2.77H56a4.33,4.33,0,0,1,2.07.48,3.46,3.46,0,0,1,1.38,1.38,4.21,4.21,0,0,1,.49,2.06,4.22,4.22,0,0,1-.49,2.07,3.55,3.55,0,0,1-1.39,1.38,4.29,4.29,0,0,1-2.06.48H51.44Zm3.7,1.39L57,9.77l3.47,6.6H58.25Z" transform="translate(0 -2.64)"/><path class="cls-1" d="M63.09,2.78H65V16.37h-1.9Zm.92,0h7.81V4.59H64Zm0,5.93h6.78v1.82H64Zm0,5.85h7.81v1.81H64Z" transform="translate(0 -2.64)"/><path class="cls-1" d="M74.53,2.78h1.91V16.37H74.53Zm.92,0h7.81V4.59H75.45Zm0,5.93h6.78v1.82H75.45Zm0,5.85h7.81v1.81H75.45Z" transform="translate(0 -2.64)"/><path class="cls-1" d="M86,2.78h1.91V16.37H86Zm1,6.5H91.3A2,2,0,0,0,92.39,9a1.87,1.87,0,0,0,.72-.82A2.77,2.77,0,0,0,93.37,7a2.86,2.86,0,0,0-.26-1.24,1.92,1.92,0,0,0-.72-.82,2,2,0,0,0-1.09-.3H87V2.78h4.28a4.27,4.27,0,0,1,2.14.52,3.53,3.53,0,0,1,1.43,1.46A4.54,4.54,0,0,1,95.32,7a4.5,4.5,0,0,1-.51,2.18,3.51,3.51,0,0,1-1.43,1.45,4.27,4.27,0,0,1-2.14.52H87Z" transform="translate(0 -2.64)"/><path class="cls-1" d="M38.94,19h1.91v13.6H38.94Zm1,6.51h4.34a2,2,0,0,0,1.09-.29,1.92,1.92,0,0,0,.72-.82,2.85,2.85,0,0,0,.26-1.23A2.82,2.82,0,0,0,46.08,22a2,2,0,0,0-.72-.83,2,2,0,0,0-1.09-.29H39.93V19h4.28a4.37,4.37,0,0,1,2.14.52A3.61,3.61,0,0,1,47.78,21a4.94,4.94,0,0,1,0,4.37,3.57,3.57,0,0,1-1.43,1.45,4.37,4.37,0,0,1-2.14.51H39.93Z" transform="translate(0 -2.64)"/><path class="cls-1" d="M50.68,19h1.91V32.63H50.68Zm.83,6h4.64a1.73,1.73,0,0,0,1-.26,1.68,1.68,0,0,0,.65-.74,2.79,2.79,0,0,0,0-2.22,1.72,1.72,0,0,0-.64-.74,1.83,1.83,0,0,0-1-.26H51.51V19h4.56a4.28,4.28,0,0,1,2.07.49,3.36,3.36,0,0,1,1.39,1.38A4.27,4.27,0,0,1,60,23a4.16,4.16,0,0,1-.5,2.06,3.36,3.36,0,0,1-1.39,1.38,4.16,4.16,0,0,1-2.06.49H51.51Zm3.7,1.4,1.9-.43,3.48,6.6H58.33Z" transform="translate(0 -2.64)"/><path class="cls-1" d="M64.78,32.15a4.26,4.26,0,0,1-1.68-1.76,5.57,5.57,0,0,1-.59-2.63V23.9a5.57,5.57,0,0,1,.59-2.63,4.23,4.23,0,0,1,1.68-1.75,5.3,5.3,0,0,1,5,0,4.29,4.29,0,0,1,1.68,1.75,5.69,5.69,0,0,1,.59,2.63v3.86a5.69,5.69,0,0,1-.59,2.63,4.32,4.32,0,0,1-1.68,1.76,5.37,5.37,0,0,1-5,0Zm4-1.64a2.63,2.63,0,0,0,1-1.07,3.64,3.64,0,0,0,.35-1.62v-4a3.57,3.57,0,0,0-.35-1.61,2.59,2.59,0,0,0-1-1.08,2.92,2.92,0,0,0-1.49-.38,2.88,2.88,0,0,0-1.48.38,2.47,2.47,0,0,0-1,1.08,3.57,3.57,0,0,0-.35,1.61v4a3.64,3.64,0,0,0,.35,1.62,2.5,2.5,0,0,0,1,1.07,2.88,2.88,0,0,0,1.48.38A2.92,2.92,0,0,0,68.77,30.51Z" transform="translate(0 -2.64)"/><path class="cls-1" d="M75,19h1.91v13.6H75Zm1.29,11.78h3.08A3.26,3.26,0,0,0,81.66,30a2.88,2.88,0,0,0,.83-2.2v-4a2.88,2.88,0,0,0-.83-2.2,3.26,3.26,0,0,0-2.33-.78H76.25V19h3a6.25,6.25,0,0,1,2.79.57,3.93,3.93,0,0,1,1.77,1.67,5.3,5.3,0,0,1,.61,2.63v3.86a5.27,5.27,0,0,1-.61,2.63,3.93,3.93,0,0,1-1.77,1.67,6.33,6.33,0,0,1-2.8.57h-3Z" transform="translate(0 -2.64)"/><path class="cls-1" d="M89.16,32.17a3.8,3.8,0,0,1-1.63-1.73A6,6,0,0,1,87,27.71V19h1.91v8.75a3.28,3.28,0,0,0,.75,2.3,2.73,2.73,0,0,0,2.11.81,2.76,2.76,0,0,0,2.13-.81,3.28,3.28,0,0,0,.75-2.3V19h1.91v8.68A6.12,6.12,0,0,1,96,30.44a3.87,3.87,0,0,1-1.64,1.73,5.22,5.22,0,0,1-2.59.6A5.17,5.17,0,0,1,89.16,32.17Z" transform="translate(0 -2.64)"/><path class="cls-1" d="M101.29,32.14a4.36,4.36,0,0,1-1.66-1.77A5.83,5.83,0,0,1,99,27.7V24a5.76,5.76,0,0,1,.59-2.66,4.36,4.36,0,0,1,1.66-1.79,4.81,4.81,0,0,1,2.48-.63,4.77,4.77,0,0,1,2.16.5,4.66,4.66,0,0,1,1.64,1.42,5.37,5.37,0,0,1,.89,2.12h-1.95a3,3,0,0,0-.6-1.13,2.94,2.94,0,0,0-1-.78,2.63,2.63,0,0,0-1.16-.27,2.63,2.63,0,0,0-2.43,1.53A3.92,3.92,0,0,0,101,24V27.7a3.85,3.85,0,0,0,.34,1.68,2.59,2.59,0,0,0,2.43,1.53,2.93,2.93,0,0,0,1.17-.25,2.79,2.79,0,0,0,1-.75,3,3,0,0,0,.6-1.18h1.95a5.39,5.39,0,0,1-.9,2.12,4.66,4.66,0,0,1-1.64,1.42,4.72,4.72,0,0,1-2.15.5A4.81,4.81,0,0,1,101.29,32.14Z" transform="translate(0 -2.64)"/><path class="cls-1" d="M109.3,19h9.59v1.82H109.3Zm3.84,1.12h1.91V32.63h-1.91Z" transform="translate(0 -2.64)"/><path class="cls-1" d="M122.67,32.63h-1.91V19h1.91Z" transform="translate(0 -2.64)"/><path class="cls-1" d="M128,32.15a4.32,4.32,0,0,1-1.68-1.76,5.57,5.57,0,0,1-.59-2.63V23.9a5.57,5.57,0,0,1,.59-2.63A4.29,4.29,0,0,1,128,19.52a5.3,5.3,0,0,1,5,0,4.29,4.29,0,0,1,1.68,1.75,5.69,5.69,0,0,1,.59,2.63v3.86a5.69,5.69,0,0,1-.59,2.63A4.32,4.32,0,0,1,133,32.15a5.37,5.37,0,0,1-5,0Zm4-1.64a2.63,2.63,0,0,0,1-1.07,3.64,3.64,0,0,0,.35-1.62v-4a3.57,3.57,0,0,0-.35-1.61,2.59,2.59,0,0,0-1-1.08,3.09,3.09,0,0,0-3,0,2.47,2.47,0,0,0-1,1.08,3.57,3.57,0,0,0-.35,1.61v4a3.64,3.64,0,0,0,.35,1.62,2.5,2.5,0,0,0,1,1.07,3.09,3.09,0,0,0,3,0Z" transform="translate(0 -2.64)"/><path class="cls-1" d="M138.21,19h1.73l6.65,10.51-.23.25V19h1.89V32.62H146.5l-6.63-10.35.23-.24V32.62h-1.89Z" transform="translate(0 -2.64)"/><path class="cls-1" d="M153.84,32.58a6.86,6.86,0,0,1-3.06-1.49L152,29.63a5.52,5.52,0,0,0,1.71,1,6.09,6.09,0,0,0,2,.33,4.1,4.1,0,0,0,2.29-.54,1.75,1.75,0,0,0,.82-1.55h0a1.69,1.69,0,0,0-.37-1.13,2.27,2.27,0,0,0-1-.61,9.36,9.36,0,0,0-1.5-.37h-.13l-.14,0a14.59,14.59,0,0,1-2.22-.53A3.11,3.11,0,0,1,152,25.11a3.51,3.51,0,0,1-.61-2.22h0a3.93,3.93,0,0,1,.57-2.16,3.5,3.5,0,0,1,1.65-1.36,6.58,6.58,0,0,1,2.61-.47,6.89,6.89,0,0,1,1.43.16,7.85,7.85,0,0,1,1.39.47,9,9,0,0,1,1.36.79l-1.09,1.52a6.33,6.33,0,0,0-1.55-.86,4.4,4.4,0,0,0-1.54-.28,3.69,3.69,0,0,0-2.17.55,1.86,1.86,0,0,0-.77,1.58h0a1.47,1.47,0,0,0,.4,1.1,2.36,2.36,0,0,0,1,.6,14.72,14.72,0,0,0,1.65.39l.07,0h.07l.1,0,.1,0a11.36,11.36,0,0,1,2.07.6,3.17,3.17,0,0,1,1.38,1.12,3.51,3.51,0,0,1,.56,2.1v0a3.78,3.78,0,0,1-.59,2.13,3.7,3.7,0,0,1-1.71,1.35,7.18,7.18,0,0,1-2.7.46A8.63,8.63,0,0,1,153.84,32.58Z" transform="translate(0 -2.64)"/><path class="cls-1" d="M3.85,22.17a11.7,11.7,0,0,1-1-4.9,11.59,11.59,0,0,1,1.51-5.88A11.09,11.09,0,0,1,8.62,7.23a12,12,0,0,1,6-1.55,12.84,12.84,0,0,1,4,.61l.78-.74c.47-.44.95-.87,1.45-1.3A15.61,15.61,0,0,0,14.55,3,14.31,14.31,0,0,0,4.15,7.07,13.33,13.33,0,0,0,0,17a14.65,14.65,0,0,0,1.88,7.43Z" transform="translate(0 -2.64)"/><path class="cls-1" d="M14.76,28.8a11.74,11.74,0,0,1-8.54-3.3,13.51,13.51,0,0,1-1-1.06L3.39,26.59s0,0,0,0q4.08,4.71,11.16,4.71a15.73,15.73,0,0,0,6.74-1.4,13.59,13.59,0,0,0,5-4l-2.13-1.61A12,12,0,0,1,14.76,28.8Z" transform="translate(0 -2.64)"/><path class="cls-1" d="M23,5.48,21,7.39a11.68,11.68,0,0,1,3.26,3l2.13-1.63A13.1,13.1,0,0,0,23,5.48Z" transform="translate(0 -2.64)"/><path class="cls-1" d="M7.54,29.13V26.19l20.83-8.93L7.54,8.17V5.24L34.51,17v.59Z" transform="translate(0 -2.64)"/></g></g></svg>